<svg width="134" height="107" viewBox="0 0 134 107" fill="none" xmlns="http://www.w3.org/2000/svg">
<g clip-path="url(#clip0_75_1081)">
<path d="M79.9101 29.53L80.3801 29.91L73.4201 37.39L73.4501 37.45L86.7201 29.18V30.33L71.6001 46.51L74.7201 48L90.0001 31.64V23.24L79.9301 29.52L79.9101 29.53ZM106.67 68.97V63.99L121.31 78.34L133.69 65.3L107.58 37.81V32.56L122.28 41.67L132.1 25.16L94.3701 2.89001L68.6701 20.31L65.8301 22.24L75.5701 30.24L71.9001 34.19L73.4201 37.4L73.4501 37.46L86.7201 29.19V30.34L71.6001 46.52L69.2401 49.05L77.4301 52.95L72.8601 63.59L60.7401 58.16L58.3601 60.71L56.8401 62.33L67.3401 74.39L66.0601 75.19L63.0501 77.08L78.5301 88.2L81.7001 86.41L86.2801 83.82V106.52H106.7V91.03L123.53 101.63L134 87.17L106.7 68.98L106.67 68.97ZM61.2401 62.41L61.5101 62.13L72.7201 67.15L68.8101 71.1L61.2501 62.42L61.2401 62.41ZM122.65 97.2L103.39 85.06V103.22H89.5301V78.18L78.7201 84.29L68.9301 77.27L89.7601 64.2V49.97L76.5501 63.29L81.6901 51.33L74.7101 48.01L89.9901 31.65V23.25L79.9201 29.53L71.3401 22.49L94.5001 6.79001L127.58 26.33L121.17 37.11L104.3 26.66V39.14L129.15 65.3L121.23 73.65L103.39 56.17V70.74L129.3 88L122.65 97.19V97.2ZM74.8701 69.64L86.4901 57.94V62.35L74.8701 69.64ZM79.9101 29.53L80.3801 29.91L73.4201 37.39L73.4501 37.45L86.7201 29.18V30.33L71.6001 46.51L74.7201 48L90.0001 31.64V23.24L79.9301 29.52L79.9101 29.53Z" fill="white"/>
<path d="M81.67 86.41L78.72 84.29L68.92 77.27L66.03 75.19L53 65.83V58.31L58.33 60.7L61.5 62.12L72.71 67.14L74.53 67.96L76.54 63.28L81.68 51.32L74.7 48L71.58 46.51L53 37.67V31.42L67.99 43.22L73.41 37.39L80.37 29.91L79.9 29.53L71.32 22.49L68.66 20.31L43.94 0L0 34.44L12.69 48.05L4.05 53.66L12.7 68.31L34.16 54.68V56.75L6.3 89.24L19.6 103.2L33.94 87.32V106.76H52.56V87.82L73.2 102.41L83.41 87.66L81.68 86.42L81.67 86.41ZM72.38 97.8L49.28 81.47V103.45H37.22V78.78L19.54 98.36L10.74 89.13L37.45 57.98V48.69L13.81 63.7L8.49 54.7L37.68 35.75V24.41L13.21 43.76L4.87 34.82L43.89 4.22L65.83 22.23L75.57 30.23L71.9 34.18L67.65 38.75L49.72 24.64V39.75L69.22 49.03L77.41 52.93L72.84 63.57L60.71 58.15L49.72 53.22V67.52L63.02 77.07L78.5 88.19L78.85 88.44L72.38 97.79V97.8ZM14.92 46.59L34.4 31.21V33.96L14.92 46.59Z" fill="white"/>
</g>
<defs>
<clipPath id="clip0_75_1081">
<rect width="133.97" height="106.75" fill="white"/>
</clipPath>
</defs>
</svg>
