<svg width="473" height="88" viewBox="0 0 473 88" fill="none" xmlns="http://www.w3.org/2000/svg">
<g clip-path="url(#clip0_75_987)">
<path d="M153.98 0H165.3V27.74C165.3 32.05 167.52 34.56 171.97 34.56C176.42 34.56 178.57 32.05 178.57 27.74V0H189.89V27.68C189.89 37.85 183.01 43.71 171.97 43.71C160.93 43.71 153.98 37.85 153.98 27.68V0Z" fill="white"/>
<path d="M204.89 9.08H194.96V0H226.01V9.08H216.15V42.94H204.9V9.08H204.89Z" fill="white"/>
<path d="M242.25 18.22V42.94H231.07V0H242.53L255.87 23.5V0H266.98V42.94H256.35L242.25 18.22Z" fill="white"/>
<path d="M274.41 0H293.02C303.09 0 308.09 6.57 308.09 14.16C308.09 21.75 303.09 28.13 293.02 28.13H285.66V42.94H274.41V0ZM291.63 8.95H285.66V19.19H291.63C294.62 19.19 296.7 17.19 296.7 14.1C296.7 11.01 294.62 8.95 291.63 8.95Z" fill="white"/>
<path d="M326.84 11.16C328.66 6.26 333.63 0 342.54 0C352.26 0 358.58 5.44 358.58 13.91C358.58 21.04 351.7 25.64 345.73 30.01C342.85 32.13 341.1 33.61 340.79 34.26H358.83V43.08H328.03V39.33C328.03 32.42 335.41 27.01 340.47 23.01C344.44 19.92 347.94 17.35 347.94 14.04C347.94 10.94 345.69 8.82 342.41 8.82C339.13 8.82 336.44 11.35 334.88 14.98L326.84 11.17V11.16Z" fill="white"/>
<path d="M363.94 22.17C363.94 10.1 369.19 0 381.79 0C394.39 0 399.61 10.94 399.61 22.17C399.61 34.21 394.26 43.71 381.79 43.71C369.32 43.71 363.94 34.21 363.94 22.17ZM381.79 34.8C387.7 34.8 389.45 28.14 389.45 21.82C389.45 15 387.54 8.91 381.79 8.91C376.04 8.91 374.1 15.48 374.1 21.82C374.1 28.64 376.04 34.8 381.79 34.8Z" fill="white"/>
<path d="M404.2 11.16C406.01 6.26 410.98 0 419.89 0C429.61 0 435.93 5.44 435.93 13.91C435.93 21.04 429.05 25.64 423.08 30.01C420.2 32.13 418.45 33.61 418.14 34.26H436.18V43.08H405.38V39.33C405.38 32.42 412.76 27.01 417.82 23.01C421.79 19.92 425.29 17.35 425.29 14.04C425.29 10.94 423.04 8.82 419.76 8.82C416.48 8.82 413.79 11.35 412.22 14.98L404.18 11.17L404.2 11.16Z" fill="white"/>
<path d="M440.2 33.3L448.33 28.99C450.21 32.87 452.93 34.87 456.02 34.87C459.68 34.87 462.55 32.31 462.55 28.9C462.55 25.27 459.86 22.87 456.14 22.87C453.01 22.87 450.79 24.49 449.48 26.34L442.19 23.15L444.6 0.640015H470.18V9.49001H452.86L452.08 16.96C452.77 16.34 455.14 15.37 458.15 15.37C467.03 15.37 472.75 20.72 472.75 28.97C472.75 37.79 466.06 43.73 456.12 43.73C448.12 43.73 442.89 39.42 440.2 33.32V33.3Z" fill="white"/>
<path d="M256.65 64.62H252.63L244.84 75.17V64.62H241.51V86.15H244.84V75.75L252.22 86.09L252.27 86.15H256.44L248.41 75.31L256.65 64.62Z" fill="white"/>
<path d="M274.45 67.35C273.41 66.31 272.24 65.52 270.97 64.99C269.71 64.47 268.32 64.2 266.84 64.2C265.36 64.2 264.03 64.47 262.78 64.99C261.53 65.51 260.37 66.3 259.35 67.32C258.27 68.4 257.43 69.63 256.87 70.97C256.31 72.31 256.02 73.76 256.02 75.26C256.02 76.76 256.26 78.13 256.72 79.42C257.18 80.71 257.88 81.88 258.77 82.89C259.83 84.11 261.05 85.04 262.39 85.65C263.73 86.27 265.21 86.58 266.8 86.58C268.39 86.58 269.86 86.27 271.21 85.66C272.56 85.05 273.8 84.14 274.89 82.94C275.82 81.92 276.53 80.75 276.99 79.47C277.45 78.19 277.69 76.77 277.69 75.26C277.69 73.75 277.42 72.28 276.87 70.96C276.33 69.63 275.51 68.42 274.44 67.35H274.45ZM272.15 80.94C270.73 82.46 268.93 83.24 266.82 83.24C265.87 83.24 264.92 83.03 264 82.63C263.08 82.22 262.26 81.64 261.56 80.9C260.9 80.2 260.38 79.35 260.02 78.39C259.66 77.42 259.48 76.38 259.48 75.3C259.48 74.29 259.68 73.29 260.07 72.32C260.46 71.35 261.02 70.49 261.72 69.76C262.39 69.06 263.18 68.51 264.04 68.14C264.91 67.77 265.84 67.58 266.8 67.58C267.88 67.58 268.87 67.78 269.75 68.19C270.63 68.59 271.48 69.23 272.25 70.07C272.91 70.8 273.41 71.61 273.75 72.48C274.09 73.35 274.26 74.27 274.26 75.23C274.26 77.49 273.54 79.42 272.11 80.94H272.15Z" fill="white"/>
<path d="M283.81 64.62H280.48V86.15H290.66V82.93H283.81V64.62Z" fill="white"/>
<path d="M309.54 67.35C308.5 66.31 307.33 65.52 306.06 64.99C304.8 64.47 303.41 64.2 301.93 64.2C300.45 64.2 299.12 64.47 297.87 64.99C296.62 65.51 295.46 66.3 294.44 67.32C293.36 68.4 292.52 69.63 291.96 70.97C291.4 72.31 291.11 73.76 291.11 75.26C291.11 76.76 291.35 78.13 291.81 79.42C292.27 80.71 292.97 81.88 293.86 82.89C294.92 84.11 296.14 85.04 297.48 85.65C298.82 86.27 300.3 86.58 301.89 86.58C303.48 86.58 304.95 86.27 306.3 85.66C307.65 85.05 308.89 84.14 309.98 82.94C310.91 81.92 311.62 80.75 312.08 79.47C312.54 78.19 312.78 76.77 312.78 75.26C312.78 73.75 312.51 72.28 311.96 70.96C311.42 69.63 310.6 68.42 309.53 67.35H309.54ZM307.23 80.94C305.81 82.46 304.01 83.24 301.9 83.24C300.95 83.24 300 83.03 299.08 82.63C298.16 82.22 297.34 81.64 296.64 80.9C295.98 80.2 295.46 79.35 295.1 78.39C294.74 77.42 294.56 76.38 294.56 75.3C294.56 74.29 294.76 73.29 295.15 72.32C295.54 71.35 296.1 70.49 296.8 69.76C297.47 69.06 298.26 68.51 299.12 68.14C299.99 67.77 300.92 67.58 301.88 67.58C302.96 67.58 303.95 67.78 304.83 68.19C305.71 68.59 306.56 69.23 307.33 70.07C307.99 70.8 308.49 71.61 308.83 72.48C309.17 73.35 309.34 74.27 309.34 75.23C309.34 77.49 308.62 79.42 307.19 80.94H307.23Z" fill="white"/>
<path d="M328.78 80.34L318.89 64.62H315.57V86.15H318.89V69.96L328.78 86.15H332.1V64.62H328.78V80.34Z" fill="white"/>
<path d="M351.55 73.55C351.21 73.43 350.74 73.29 350.1 73.12C348.78 72.77 347.92 72.35 347.53 71.88C347.34 71.65 347.2 71.4 347.11 71.14C347.02 70.88 346.97 70.59 346.97 70.28C346.97 69.41 347.22 68.69 347.72 68.14C348.21 67.6 348.86 67.32 349.65 67.32C350.38 67.32 351 67.57 351.48 68.06C351.96 68.55 352.23 69.21 352.28 70.01V70.15H355.41V69.99C355.29 68.21 354.73 66.79 353.73 65.76C352.72 64.73 351.39 64.21 349.75 64.21C347.99 64.21 346.55 64.79 345.46 65.94C344.37 67.09 343.82 68.61 343.82 70.45C343.82 71.08 343.91 71.67 344.09 72.22C344.27 72.77 344.55 73.3 344.91 73.78C345.71 74.89 347.02 75.7 348.8 76.18C348.98 76.23 349.11 76.26 349.18 76.28C350.61 76.73 351.56 77.21 352 77.71C352.43 78.2 352.65 78.92 352.65 79.84C352.65 80.89 352.35 81.75 351.75 82.37C351.15 82.99 350.34 83.31 349.34 83.31C348.44 83.31 347.69 82.99 347.13 82.37C346.56 81.74 346.25 80.89 346.2 79.83V79.69H343.19V79.84C343.21 81.83 343.8 83.46 344.93 84.69C346.07 85.92 347.57 86.54 349.38 86.54C351.31 86.54 352.88 85.89 354.06 84.61C355.23 83.33 355.82 81.63 355.82 79.55C355.82 78.12 355.45 76.88 354.72 75.86C353.99 74.84 352.91 74.05 351.51 73.52L351.55 73.55Z" fill="white"/>
<path d="M368.73 65.53C368.18 65.2 367.53 64.97 366.81 64.83C366.09 64.69 365.03 64.62 363.66 64.62H358.66V86.15H361.98V77.6H364.22C366.49 77.6 368.32 77 369.65 75.81C370.99 74.61 371.67 72.99 371.67 70.98C371.67 69.84 371.4 68.77 370.88 67.8C370.35 66.82 369.63 66.06 368.74 65.53H368.73ZM367.31 73.68C366.63 74.21 365.52 74.48 364 74.48H361.97V67.74H364.1C365.54 67.74 366.61 68.02 367.29 68.58C367.96 69.13 368.31 70 368.31 71.15C368.31 72.3 367.97 73.15 367.31 73.67V73.68Z" fill="white"/>
<path d="M391.57 67.35C390.53 66.31 389.36 65.52 388.09 64.99C386.83 64.47 385.44 64.2 383.96 64.2C382.48 64.2 381.15 64.47 379.9 64.99C378.65 65.51 377.49 66.3 376.47 67.32C375.39 68.4 374.55 69.63 373.99 70.97C373.43 72.31 373.14 73.76 373.14 75.26C373.14 76.76 373.38 78.13 373.84 79.42C374.3 80.71 375 81.88 375.89 82.89C376.95 84.11 378.17 85.04 379.51 85.65C380.85 86.27 382.33 86.58 383.92 86.58C385.51 86.58 386.98 86.27 388.33 85.66C389.68 85.05 390.92 84.14 392.01 82.94C392.94 81.92 393.65 80.75 394.11 79.47C394.57 78.19 394.81 76.77 394.81 75.26C394.81 73.75 394.54 72.28 393.99 70.96C393.45 69.63 392.63 68.42 391.56 67.35H391.57ZM389.26 80.94C387.84 82.46 386.04 83.24 383.93 83.24C382.98 83.24 382.03 83.03 381.11 82.63C380.19 82.22 379.37 81.64 378.67 80.9C378.01 80.2 377.49 79.35 377.13 78.39C376.77 77.42 376.59 76.38 376.59 75.3C376.59 74.29 376.79 73.29 377.18 72.32C377.57 71.35 378.13 70.49 378.83 69.76C379.5 69.06 380.29 68.51 381.15 68.14C382.02 67.77 382.95 67.58 383.91 67.58C384.99 67.58 385.98 67.78 386.86 68.19C387.74 68.59 388.59 69.23 389.36 70.07C390.02 70.8 390.52 71.61 390.86 72.48C391.2 73.35 391.37 74.27 391.37 75.23C391.37 77.49 390.65 79.42 389.22 80.94H389.26Z" fill="white"/>
<path d="M412.94 64.62V67.77H416.85V86.15H420.18V67.77H424.09V64.62H412.94Z" fill="white"/>
<path d="M409.64 75.81C410.98 74.61 411.66 72.99 411.66 70.98C411.66 69.84 411.39 68.77 410.87 67.8C410.34 66.82 409.62 66.06 408.73 65.53C408.18 65.2 407.53 64.96 406.81 64.83C406.09 64.69 405.03 64.62 403.66 64.62H397.61V86.15H400.93V75.66L402.15 77.6L407.51 86.15H411.67L406.08 77.45C406.08 77.45 406.17 77.44 406.21 77.43C407.58 77.17 408.73 76.63 409.65 75.81H409.64ZM400.92 67.74H404.1C405.54 67.74 406.61 68.02 407.3 68.58C407.97 69.13 408.32 70 408.32 71.15C408.32 72.3 407.98 73.15 407.32 73.67C406.64 74.2 405.53 74.47 404.01 74.47H400.93V67.73L400.92 67.74ZM400.92 75.44L400.94 75.47H400.92V75.44Z" fill="white"/>
<path d="M229.32 70.43V68.93L233.16 71.24L235.61 67.22L226.45 61.59L219.47 65.85L213.18 60.9L202.64 69.54L205.4 72.99L203.44 74.24L205.62 77.85L211.02 74.57V74.96L204.1 83.53L207.66 86.48L211.02 82.37V87.48H216.05V82.73L221.2 86.24L223.71 82.54L223.15 82.15L224.27 81.58V87.46H229.29V83.29L233.8 86.16L236.22 82.4L233.08 80.33L236.22 77.05L229.31 70.43H229.32ZM221.02 85.2C220.07 84.56 215.32 81.32 215.32 81.32V86.73H211.76V80.29C211.76 80.29 208.25 84.57 207.56 85.42C206.91 84.88 205.79 83.95 205.14 83.41C205.96 82.4 211.76 75.22 211.76 75.22V73.23L205.86 76.81L204.44 74.46L211.75 69.96V67.08L205.64 72.09C204.96 71.24 204.05 70.11 203.67 69.63C204.65 68.82 213.18 61.84 213.18 61.84L221.26 68.21L219.48 70.58L215.3 67.36V71.15L222.03 73.76L220.99 76.52L215.3 74.4V77.64C215.3 77.64 222.61 82.68 222.69 82.73C222.23 83.42 221.48 84.52 221.02 85.2ZM207.02 72L211.02 68.68V69.55L207.02 72ZM224.23 68.19L220.61 72.42L216.05 70.63V68.82L219.63 71.61L220.6 70.37L224.23 68.19ZM219.58 79.02L219.04 79.3L216.04 77.24V75.45L217.54 76.01L216.94 76.72L219.59 79.02H219.58ZM217.91 76.72L218.26 76.31L220.98 77.34L220.05 78.46L217.92 76.73L217.91 76.72ZM228.58 75.09V78.35L235.19 82.61L233.58 85.12L228.56 81.92V86.7H225.02V80.34L222.45 81.66L219.72 79.78L224.97 77.01V72.75L221.88 76.32L223 73.3L221.36 72.7L224.96 68.48V66.87L221.86 68.75L222.33 68.08L220.09 66.34C221.74 65.33 225.9 62.79 226.45 62.46C227.1 62.86 233.54 66.82 234.59 67.47C234.14 68.21 233.35 69.5 232.92 70.22C232.04 69.69 228.58 67.61 228.58 67.61V70.75C228.58 70.75 234.25 76.18 235.18 77.07C234.58 77.7 233.55 78.77 233.02 79.33C232.52 78.85 228.59 75.1 228.59 75.1L228.58 75.09ZM232.79 80.15L229.32 77.94V76.78L232.79 80.15ZM221.36 78.06L224.27 74.68V76.55L221.36 78.06Z" fill="white"/>
<path d="M131.83 83.63L117.26 58.27C116.9 57.65 116.4 57.31 115.84 57.31C115.69 57.31 115.55 57.34 115.41 57.38C115.39 57.32 115.37 57.26 115.34 57.2C115.29 57.11 115.21 57.03 115.14 56.95C115.21 56.87 115.29 56.79 115.34 56.7C115.62 56.21 115.58 55.6 115.23 54.99L100.66 29.63C100.31 29.01 99.8 28.67 99.24 28.67C99.1 28.67 98.97 28.69 98.84 28.73C98.81 28.66 98.8 28.59 98.76 28.53C98.71 28.44 98.63 28.36 98.56 28.28C98.63 28.2 98.71 28.12 98.76 28.03C99.04 27.54 99 26.94 98.65 26.32L84.08 0.96C83.72 0.34 83.22 0 82.66 0C82.1 0 81.59 0.34 81.24 0.96L66.67 26.32C66.32 26.94 66.28 27.54 66.56 28.03C66.61 28.12 66.69 28.2 66.76 28.28C66.69 28.36 66.61 28.44 66.56 28.53C66.52 28.6 66.5 28.67 66.48 28.74C66.34 28.7 66.2 28.67 66.06 28.67C65.92 28.67 65.78 28.69 65.64 28.74C65.61 28.67 65.6 28.6 65.56 28.53C65.5 28.43 65.42 28.34 65.34 28.26C65.41 28.19 65.47 28.12 65.52 28.03C65.8 27.54 65.76 26.94 65.41 26.32L50.84 0.96C50.48 0.34 49.98 0 49.42 0C48.86 0 48.35 0.34 48 0.96L33.43 26.32C33.08 26.94 33.04 27.54 33.32 28.03C33.38 28.13 33.46 28.22 33.54 28.3C33.47 28.37 33.41 28.44 33.36 28.53C33.32 28.59 33.31 28.66 33.28 28.73C33.15 28.69 33.02 28.67 32.88 28.67C32.32 28.67 31.81 29.01 31.46 29.63L16.89 54.99C16.54 55.61 16.5 56.21 16.78 56.7C16.83 56.79 16.91 56.87 16.98 56.95C16.91 57.03 16.83 57.11 16.78 57.2C16.74 57.27 16.72 57.34 16.7 57.41C16.57 57.37 16.44 57.35 16.31 57.35C15.75 57.35 15.24 57.69 14.89 58.31L0.299967 83.67C-0.0500328 84.29 -0.0900328 84.89 0.189967 85.38C0.469967 85.87 1.02997 86.14 1.74997 86.14H30.84C31.56 86.14 32.11 85.87 32.4 85.38C32.44 85.31 32.46 85.24 32.48 85.17C32.61 85.21 32.74 85.23 32.87 85.23C33.01 85.23 33.14 85.21 33.26 85.17C33.29 85.24 33.31 85.32 33.34 85.39C33.62 85.88 34.18 86.15 34.9 86.15H63.99C64.71 86.15 65.26 85.88 65.55 85.39C65.59 85.32 65.61 85.25 65.63 85.18C65.76 85.22 65.89 85.24 66.02 85.24C66.17 85.24 66.31 85.22 66.45 85.17C66.47 85.23 66.49 85.29 66.52 85.35C66.8 85.84 67.36 86.11 68.08 86.11H97.17C97.89 86.11 98.44 85.84 98.73 85.35C98.76 85.29 98.78 85.23 98.8 85.17C98.94 85.22 99.08 85.24 99.23 85.24C99.38 85.24 99.52 85.21 99.66 85.17C99.68 85.23 99.7 85.29 99.73 85.35C100.01 85.84 100.57 86.11 101.29 86.11H130.38C131.1 86.11 131.65 85.84 131.94 85.35C132.22 84.86 132.18 84.26 131.83 83.64V83.63ZM115.84 58.06V58.34C116.02 58.34 116.21 58.5 116.38 58.79L130.95 84.15C131.11 84.43 131.15 84.68 131.06 84.84C130.97 85 130.72 85.09 130.39 85.09H101.3C100.96 85.09 100.72 85 100.63 84.84C100.54 84.68 100.58 84.43 100.74 84.15L115.31 58.79C115.47 58.51 115.67 58.34 115.85 58.34V58.06H115.84ZM66.56 83.76C66.4 84.03 66.21 84.19 66.02 84.19C65.83 84.19 65.64 84.03 65.48 83.76L65.44 83.68L50.92 58.4C50.76 58.12 50.72 57.87 50.81 57.72C50.9 57.56 51.15 57.47 51.48 57.47H80.57C80.91 57.47 81.15 57.56 81.24 57.72C81.33 57.87 81.29 58.11 81.14 58.39L66.63 83.64C66.63 83.64 66.63 83.64 66.63 83.65L66.56 83.77V83.76ZM32.28 83.67L27.17 74.77L17.76 58.4C17.6 58.12 17.56 57.87 17.65 57.71C17.74 57.55 17.99 57.46 18.32 57.46H47.41C47.75 57.46 47.99 57.55 48.08 57.71C48.17 57.86 48.13 58.12 47.97 58.4L33.4 83.76C33.24 84.03 33.05 84.19 32.86 84.19C32.67 84.19 32.48 84.03 32.32 83.76L32.27 83.68L32.28 83.67ZM15.75 58.83C15.91 58.55 16.11 58.38 16.29 58.38C16.47 58.38 16.66 58.54 16.83 58.83L26.71 76.02L31.4 84.18C31.56 84.46 31.6 84.71 31.51 84.87C31.42 85.03 31.17 85.12 30.84 85.12H1.74997C1.40997 85.12 1.16997 85.03 1.07997 84.87C0.989967 84.71 1.02997 84.46 1.18997 84.18L15.76 58.82L15.75 58.83ZM34.31 26.83L48.88 1.47C49.04 1.19 49.24 1.02 49.42 1.02C49.6 1.02 49.79 1.18 49.96 1.47L64.53 26.83C64.69 27.11 64.73 27.36 64.64 27.52C64.55 27.68 64.3 27.77 63.97 27.77H34.88C34.54 27.77 34.3 27.68 34.21 27.52C34.12 27.36 34.16 27.11 34.32 26.83H34.31ZM82.12 1.47C82.28 1.19 82.48 1.02 82.66 1.02C82.84 1.02 83.03 1.18 83.2 1.47L97.77 26.83C97.93 27.11 97.97 27.36 97.88 27.52C97.79 27.68 97.54 27.77 97.21 27.77H68.12C67.78 27.77 67.54 27.68 67.45 27.52C67.36 27.36 67.4 27.11 67.56 26.83L82.12 1.47ZM98.7 30.14C98.86 29.86 99.06 29.69 99.24 29.69C99.42 29.69 99.61 29.85 99.78 30.14L114.35 55.5C114.51 55.78 114.55 56.03 114.46 56.19C114.37 56.35 114.12 56.44 113.79 56.44H84.7C84.36 56.44 84.12 56.35 84.03 56.19C83.95 56.05 83.98 55.83 84.1 55.58L98.66 30.24C98.66 30.24 98.67 30.21 98.68 30.19L98.71 30.14H98.7ZM34.9 28.79H63.99C64.33 28.79 64.57 28.88 64.66 29.04C64.75 29.2 64.71 29.45 64.55 29.73L49.98 55.09C49.65 55.66 49.23 55.66 48.91 55.09L48.89 55.05C48.89 55.05 48.87 55.01 48.86 54.99L34.3 29.65C34.18 29.4 34.14 29.18 34.23 29.04C34.32 28.88 34.57 28.79 34.9 28.79ZM68.11 28.79H97.2C97.54 28.79 97.78 28.88 97.87 29.04C97.95 29.18 97.92 29.41 97.79 29.66L83.24 54.99C83.24 54.99 83.22 55.03 83.21 55.05L83.19 55.09C82.86 55.66 82.44 55.66 82.12 55.09L67.55 29.73C67.39 29.45 67.35 29.2 67.44 29.04C67.53 28.88 67.78 28.79 68.11 28.79ZM82.2 57.38C82.18 57.32 82.16 57.26 82.13 57.2C82.08 57.11 82.01 57.04 81.94 56.96C82.02 56.88 82.09 56.8 82.15 56.7C82.19 56.63 82.21 56.56 82.23 56.49C82.37 56.53 82.51 56.56 82.65 56.56C82.79 56.56 82.92 56.54 83.05 56.5C83.08 56.57 83.09 56.64 83.13 56.7C83.18 56.79 83.26 56.87 83.33 56.95C83.26 57.03 83.18 57.11 83.13 57.2C83.1 57.26 83.08 57.32 83.06 57.38C82.92 57.33 82.78 57.31 82.63 57.31C82.48 57.31 82.34 57.33 82.2 57.38ZM48.97 57.2C48.92 57.11 48.84 57.03 48.77 56.95C48.84 56.87 48.92 56.79 48.97 56.7C49.01 56.64 49.02 56.57 49.05 56.5C49.18 56.54 49.31 56.56 49.45 56.56C49.59 56.56 49.73 56.54 49.87 56.49C49.9 56.56 49.91 56.63 49.95 56.7C50 56.79 50.07 56.86 50.14 56.94C50.06 57.02 49.99 57.11 49.93 57.2C49.89 57.27 49.87 57.34 49.85 57.41C49.72 57.37 49.59 57.35 49.46 57.35C49.33 57.35 49.19 57.37 49.06 57.41C49.03 57.34 49.01 57.26 48.98 57.19L48.97 57.2ZM34.35 84.18L48.92 58.82C49.08 58.54 49.28 58.37 49.46 58.37C49.64 58.37 49.83 58.53 50 58.82L50.05 58.9L64.58 84.18C64.74 84.46 64.78 84.7 64.69 84.86C64.6 85.02 64.35 85.11 64.02 85.11H34.93C34.59 85.11 34.35 85.02 34.26 84.86C34.17 84.7 34.21 84.45 34.37 84.17L34.35 84.18ZM67.52 84.15L82.02 58.91C82.02 58.91 82.02 58.9 82.02 58.89L82.09 58.78C82.25 58.5 82.45 58.33 82.63 58.33C82.81 58.33 83 58.49 83.17 58.78L97.74 84.14C97.9 84.42 97.94 84.67 97.85 84.83C97.76 84.99 97.51 85.08 97.18 85.08H68.09C67.75 85.08 67.51 84.99 67.42 84.83C67.33 84.68 67.37 84.43 67.53 84.15H67.52ZM98.7 83.76L84.13 58.4C83.97 58.12 83.93 57.87 84.02 57.71C84.11 57.55 84.36 57.46 84.69 57.46H113.78C114.12 57.46 114.36 57.55 114.45 57.71C114.54 57.87 114.5 58.12 114.34 58.4L99.77 83.76C99.46 84.3 99.01 84.3 98.7 83.76ZM66.05 29.42V29.7C66.23 29.7 66.42 29.86 66.59 30.15L81.16 55.51C81.32 55.79 81.36 56.04 81.27 56.2C81.18 56.36 80.93 56.45 80.6 56.45H51.51C51.17 56.45 50.93 56.36 50.84 56.2C50.75 56.04 50.79 55.79 50.95 55.51L65.52 30.15C65.68 29.87 65.88 29.7 66.06 29.7V29.42H66.05ZM32.87 29.42V29.7C33.05 29.7 33.24 29.86 33.41 30.15L33.43 30.19C33.43 30.19 33.45 30.23 33.46 30.25L48.02 55.59C48.14 55.84 48.18 56.06 48.1 56.2C48.01 56.36 47.76 56.45 47.43 56.45H18.34C18 56.45 17.76 56.36 17.67 56.2C17.58 56.04 17.62 55.79 17.78 55.51L32.35 30.15C32.51 29.87 32.71 29.7 32.89 29.7V29.42H32.87Z" fill="white"/>
</g>
<defs>
<clipPath id="clip0_75_987">
<rect width="472.75" height="87.48" fill="white"/>
</clipPath>
</defs>
</svg>
