<svg width="1010" height="184" viewBox="0 0 1010 184" fill="none" xmlns="http://www.w3.org/2000/svg">
<g clip-path="url(#clip0_75_1013)">
<path d="M47.96 78.65C47.3 77.7 46.84 76.5 46.58 75.07C46.32 73.64 46.2 72.08 46.2 70.4V59.51C46.2 56.36 45.48 54.01 44.05 52.47C42.62 50.93 40.33 50.16 37.18 50.16H16.94V78.65H0V1.64999H37.29C45.36 1.64999 51.88 3.31999 56.87 6.65999C61.86 9.99999 64.35 14.93 64.35 21.45C64.35 26.14 63.07 29.96 60.5 32.89C57.93 35.82 54.45 37.88 50.05 39.05C54.23 39.78 57.47 41.54 59.79 44.33C62.1 47.12 63.25 51 63.25 55.99V64.9C63.25 68.2 63.51 70.95 64.02 73.15C64.53 75.35 65.38 77.18 66.55 78.65H47.96ZM16.94 15.4V36.52H34.54C38.57 36.52 41.73 35.68 44 33.99C46.27 32.3 47.41 29.63 47.41 25.96C47.41 22.29 46.27 19.62 44 17.93C41.73 16.24 38.57 15.4 34.54 15.4H16.94Z" fill="white"/>
<path d="M70.27 1.64999H126.7V15.4H86.99V32.67H123.4V46.42H86.99V64.9H127.25V78.65H70.27V1.64999Z" fill="white"/>
<path d="M180.6 63.47H149.14L143.75 78.65H126.59L155.19 1.64999H174.55L203.15 78.65H185.99L180.6 63.47ZM175.65 49.5C173.52 43.34 171.54 37.42 169.71 31.74C167.88 26.06 166.26 20.5 164.87 15.07C163.48 20.5 161.86 26.05 160.03 31.74C158.2 37.43 156.22 43.35 154.09 49.5H175.65Z" fill="white"/>
<path d="M203.87 1.64999H234.67C246.92 1.64999 256.6 5.07999 263.71 11.94C270.82 18.8 274.38 28.2 274.38 40.16C274.38 52.12 270.82 61.52 263.71 68.37C256.6 75.22 246.92 78.66 234.67 78.66H203.87V1.64999ZM220.81 15.95V64.35H233.02C240.57 64.35 246.44 62.37 250.62 58.41C254.8 54.45 256.89 48.36 256.89 40.15C256.89 31.94 254.8 25.85 250.62 21.89C246.44 17.93 240.57 15.95 233.02 15.95H220.81Z" fill="white"/>
<path d="M343.3 1.64999H361.67L333.62 49.39V78.65H316.68V49.39L288.63 1.64999H307.11L316.57 17.82C318.18 20.75 319.72 23.69 321.19 26.62C322.66 29.55 323.98 32.34 325.15 34.98C326.4 32.34 327.75 29.55 329.22 26.62C330.69 23.69 332.19 20.75 333.73 17.82L343.3 1.64999Z" fill="white"/>
<path d="M377.9 77.83C373.1 76.18 368.92 73.72 365.36 70.46C361.8 67.2 359 63.03 356.94 57.97C354.89 52.91 353.86 46.97 353.86 40.15C353.86 33.33 354.89 27.39 356.94 22.33C358.99 17.27 361.8 13.09 365.36 9.79C368.92 6.49 373.1 4.03 377.9 2.42C382.7 0.81 387.82 0 393.24 0C398.66 0 403.76 0.81 408.53 2.42C413.3 4.03 417.46 6.49 421.02 9.79C424.58 13.09 427.38 17.27 429.44 22.33C431.49 27.39 432.52 33.33 432.52 40.15C432.52 46.97 431.49 52.91 429.44 57.97C427.39 63.03 424.58 67.19 421.02 70.46C417.46 73.72 413.3 76.18 408.53 77.83C403.76 79.48 398.67 80.3 393.24 80.3C387.81 80.3 382.7 79.48 377.9 77.83ZM409.03 59.07C413.03 54.82 415.03 48.51 415.03 40.15C415.03 31.79 413.03 25.39 409.03 21.17C405.03 16.95 399.77 14.85 393.24 14.85C386.71 14.85 381.34 16.96 377.34 21.17C373.34 25.39 371.34 31.71 371.34 40.15C371.34 48.59 373.34 54.82 377.34 59.07C381.34 63.32 386.64 65.45 393.24 65.45C399.84 65.45 405.03 63.32 409.03 59.07Z" fill="white"/>
<path d="M453.05 1.64999V44.55C453.05 52.4 454.68 57.84 457.94 60.89C461.2 63.93 465.48 65.45 470.76 65.45C476.04 65.45 480.29 63.93 483.52 60.89C486.75 57.85 488.36 52.4 488.36 44.55V1.64999H505.3V46.2C505.3 52.14 504.47 57.27 502.82 61.6C501.17 65.93 498.84 69.47 495.84 72.22C492.84 74.97 489.2 77.01 484.95 78.32C480.7 79.64 475.97 80.3 470.76 80.3C465.55 80.3 460.8 79.64 456.51 78.32C452.22 77 448.57 74.97 445.56 72.22C442.55 69.47 440.23 65.93 438.57 61.6C436.92 57.27 436.1 52.14 436.1 46.2V1.64999H453.04H453.05Z" fill="white"/>
<path d="M560.15 78.65C559.49 77.7 559.03 76.5 558.77 75.07C558.51 73.64 558.39 72.08 558.39 70.4V59.51C558.39 56.36 557.67 54.01 556.24 52.47C554.81 50.93 552.52 50.16 549.36 50.16H529.12V78.65H512.18V1.64999H549.47C557.54 1.64999 564.06 3.31999 569.05 6.65999C574.04 9.99999 576.53 14.93 576.53 21.45C576.53 26.14 575.25 29.96 572.68 32.89C570.11 35.82 566.63 37.88 562.23 39.05C566.41 39.78 569.65 41.54 571.97 44.33C574.28 47.12 575.43 51 575.43 55.99V64.9C575.43 68.2 575.69 70.95 576.2 73.15C576.71 75.35 577.56 77.18 578.73 78.65H560.14H560.15ZM529.13 15.4V36.52H546.73C550.76 36.52 553.92 35.68 556.19 33.99C558.46 32.3 559.6 29.63 559.6 25.96C559.6 22.29 558.46 19.62 556.19 17.93C553.92 16.24 550.76 15.4 546.73 15.4H529.13Z" fill="white"/>
<path d="M612.73 1.64999H649.8C656.91 1.64999 662.67 3.18999 667.07 6.26999C671.47 9.34999 673.67 13.79 673.67 19.58C673.67 23.61 672.52 26.95 670.21 29.59C667.9 32.23 664.76 34.1 660.8 35.2C665.93 36.45 670.04 38.79 673.12 42.24C676.2 45.69 677.74 50.12 677.74 55.55C677.74 63.1 675.25 68.84 670.26 72.76C665.27 76.68 658.86 78.65 651.01 78.65H612.73V1.64999ZM629.45 15.4V32.78H647.05C650.35 32.78 652.92 32.08 654.75 30.69C656.58 29.3 657.5 27.1 657.5 24.09C657.5 21.08 656.58 18.79 654.75 17.43C652.92 16.07 650.35 15.39 647.05 15.39H629.45V15.4ZM657.55 62.81C659.57 61.42 660.58 59.03 660.58 55.66C660.58 52.29 659.57 49.9 657.55 48.51C655.53 47.12 652.8 46.42 649.36 46.42H629.45V64.9H649.36C652.81 64.9 655.54 64.2 657.55 62.81Z" fill="white"/>
<path d="M729.66 78.65C729 77.7 728.54 76.5 728.28 75.07C728.02 73.64 727.9 72.08 727.9 70.4V59.51C727.9 56.36 727.18 54.01 725.75 52.47C724.32 50.93 722.03 50.16 718.87 50.16H698.63V78.65H681.69V1.64999H718.98C727.05 1.64999 733.57 3.31999 738.56 6.65999C743.55 9.99999 746.04 14.93 746.04 21.45C746.04 26.14 744.76 29.96 742.19 32.89C739.62 35.82 736.14 37.88 731.74 39.05C735.92 39.78 739.16 41.54 741.48 44.33C743.79 47.12 744.94 51 744.94 55.99V64.9C744.94 68.2 745.2 70.95 745.71 73.15C746.22 75.35 747.07 77.18 748.24 78.65H729.65H729.66ZM698.64 15.4V36.52H716.24C720.27 36.52 723.43 35.68 725.7 33.99C727.97 32.3 729.11 29.63 729.11 25.96C729.11 22.29 727.97 19.62 725.7 17.93C723.43 16.24 720.27 15.4 716.24 15.4H698.64Z" fill="white"/>
<path d="M751.97 1.64999H808.4V15.4H768.69V32.67H805.1V46.42H768.69V64.9H808.95V78.65H751.97V1.64999Z" fill="white"/>
<path d="M862.3 63.47H830.84L825.45 78.65H808.29L836.89 1.64999H856.25L884.85 78.65H867.69L862.3 63.47ZM857.35 49.5C855.22 43.34 853.24 37.42 851.41 31.74C849.58 26.06 847.96 20.5 846.57 15.07C845.18 20.5 843.56 26.05 841.73 31.74C839.9 37.43 837.92 43.35 835.79 49.5H857.35Z" fill="white"/>
<path d="M937.24 1.64999V15.4H912.49V78.65H895.66V15.4H870.91V1.64999H937.24Z" fill="white"/>
<path d="M955.4 32.45H993.02V1.64999H1009.96V78.65H993.02V46.75H955.4V78.65H938.46V1.64999H955.4V32.45Z" fill="white"/>
<path d="M2.3999 105.29H59.0499V119.04H19.3399V139.61H54.9799V153.36H19.3399V182.29H2.3999V105.29Z" fill="white"/>
<path d="M78.3899 182.29H61.45V105.29H78.3899V182.29Z" fill="white"/>
<path d="M85.5598 105.29H107.01L130.55 138.51C132.38 141.22 134.24 143.86 136.11 146.43C137.98 149 139.79 151.82 141.56 154.9C141.41 151.97 141.3 148.9 141.23 145.71C141.16 142.52 141.12 139.46 141.12 136.53V105.29H157.07V182.29H142L111.53 138.73C109.33 135.58 107.41 132.77 105.75 130.31C104.1 127.85 102.58 125.41 101.18 122.99C101.25 126.07 101.33 129.13 101.4 132.17C101.47 135.21 101.51 138.31 101.51 141.47V182.28H85.5598V105.28V105.29Z" fill="white"/>
<path d="M164.51 105.29H195.31C207.56 105.29 217.24 108.72 224.35 115.58C231.46 122.44 235.02 131.84 235.02 143.79C235.02 155.74 231.46 165.15 224.35 172C217.24 178.86 207.56 182.29 195.31 182.29H164.51V105.29ZM181.45 119.59V167.99H193.66C201.21 167.99 207.08 166.01 211.26 162.05C215.44 158.09 217.53 152 217.53 143.79C217.53 135.58 215.44 129.49 211.26 125.53C207.08 121.57 201.21 119.59 193.66 119.59H181.45Z" fill="white"/>
<path d="M303.93 105.29H322.3L294.25 153.03V182.29H277.31V153.03L249.26 105.29H267.74L277.2 121.46C278.81 124.39 280.35 127.33 281.82 130.26C283.29 133.19 284.61 135.98 285.78 138.62C287.03 135.98 288.38 133.19 289.85 130.26C291.32 127.33 292.82 124.39 294.36 121.46L303.93 105.29Z" fill="white"/>
<path d="M338.54 181.46C333.74 179.81 329.56 177.35 326 174.09C322.44 170.83 319.64 166.66 317.58 161.6C315.53 156.54 314.5 150.6 314.5 143.78C314.5 136.96 315.53 131.02 317.58 125.96C319.63 120.9 322.44 116.72 326 113.42C329.56 110.12 333.74 107.66 338.54 106.05C343.34 104.44 348.46 103.63 353.88 103.63C359.3 103.63 364.4 104.44 369.17 106.05C373.94 107.66 378.1 110.12 381.66 113.42C385.22 116.72 388.02 120.9 390.08 125.96C392.13 131.02 393.16 136.96 393.16 143.78C393.16 150.6 392.13 156.54 390.08 161.6C388.03 166.66 385.22 170.82 381.66 174.09C378.1 177.35 373.94 179.81 369.17 181.46C364.4 183.11 359.31 183.94 353.88 183.94C348.45 183.94 343.34 183.11 338.54 181.46ZM369.67 162.71C373.67 158.46 375.67 152.15 375.67 143.79C375.67 135.43 373.67 129.03 369.67 124.82C365.67 120.6 360.41 118.49 353.88 118.49C347.35 118.49 341.98 120.6 337.98 124.82C333.98 129.04 331.98 135.36 331.98 143.79C331.98 152.22 333.98 158.46 337.98 162.71C341.98 166.96 347.28 169.09 353.88 169.09C360.48 169.09 365.67 166.96 369.67 162.71Z" fill="white"/>
<path d="M413.68 105.29V148.19C413.68 156.04 415.31 161.48 418.57 164.52C421.83 167.56 426.11 169.08 431.39 169.08C436.67 169.08 440.92 167.56 444.15 164.52C447.38 161.48 448.99 156.03 448.99 148.19V105.29H465.93V149.84C465.93 155.78 465.1 160.91 463.45 165.24C461.8 169.57 459.47 173.11 456.47 175.86C453.47 178.61 449.83 180.65 445.58 181.96C441.33 183.28 436.6 183.94 431.39 183.94C426.18 183.94 421.43 183.28 417.14 181.96C412.85 180.64 409.2 178.61 406.19 175.86C403.18 173.11 400.86 169.57 399.2 165.24C397.55 160.91 396.73 155.78 396.73 149.84V105.29H413.67H413.68Z" fill="white"/>
<path d="M520.79 182.29C520.13 181.34 519.67 180.15 519.41 178.71C519.15 177.28 519.02 175.72 519.02 174.04V163.15C519.02 160 518.31 157.65 516.88 156.11C515.45 154.57 513.16 153.8 510 153.8H489.76V182.29H472.82V105.29H510.11C518.18 105.29 524.7 106.96 529.69 110.29C534.68 113.63 537.17 118.56 537.17 125.08C537.17 129.77 535.89 133.59 533.32 136.52C530.75 139.45 527.27 141.51 522.87 142.68C527.05 143.41 530.29 145.17 532.61 147.96C534.92 150.75 536.07 154.63 536.07 159.62V168.53C536.07 171.83 536.33 174.58 536.84 176.78C537.35 178.98 538.2 180.81 539.37 182.28H520.78L520.79 182.29ZM489.77 119.04V140.16H507.37C511.4 140.16 514.56 139.32 516.83 137.63C519.1 135.94 520.24 133.27 520.24 129.6C520.24 125.93 519.1 123.26 516.83 121.57C514.56 119.88 511.4 119.04 507.37 119.04H489.77Z" fill="white"/>
<path d="M606.53 182.29C605.87 181.34 605.41 180.15 605.15 178.71C604.89 177.28 604.77 175.72 604.77 174.04V163.15C604.77 160 604.05 157.65 602.62 156.11C601.19 154.57 598.9 153.8 595.74 153.8H575.5V182.29H558.56V105.29H595.85C603.92 105.29 610.44 106.96 615.43 110.29C620.42 113.63 622.91 118.56 622.91 125.08C622.91 129.77 621.63 133.59 619.06 136.52C616.49 139.45 613.01 141.51 608.61 142.68C612.79 143.41 616.03 145.17 618.35 147.96C620.66 150.75 621.81 154.63 621.81 159.62V168.53C621.81 171.83 622.07 174.58 622.58 176.78C623.09 178.98 623.94 180.81 625.11 182.28H606.52L606.53 182.29ZM575.51 119.04V140.16H593.11C597.14 140.16 600.3 139.32 602.57 137.63C604.84 135.94 605.98 133.27 605.98 129.6C605.98 125.93 604.84 123.26 602.57 121.57C600.3 119.88 597.14 119.04 593.11 119.04H575.51Z" fill="white"/>
<path d="M645.78 136.09H683.4V105.29H700.34V182.29H683.4V150.39H645.78V182.29H628.84V105.29H645.78V136.09Z" fill="white"/>
<path d="M755.65 105.29H774.02L745.97 153.03V182.29H729.03V153.03L700.98 105.29H719.46L728.92 121.46C730.53 124.39 732.07 127.33 733.54 130.26C735.01 133.19 736.33 135.98 737.5 138.62C738.75 135.98 740.1 133.19 741.57 130.26C743.04 127.33 744.54 124.39 746.08 121.46L755.65 105.29Z" fill="white"/>
<path d="M838.84 105.29V119.04H814.09V182.29H797.26V119.04H772.51V105.29H838.84Z" fill="white"/>
<path d="M857 136.09H894.62V105.29H911.56V182.29H894.62V150.39H857V182.29H840.06V105.29H857V136.09Z" fill="white"/>
<path d="M941.89 143.24C939.98 137.52 938.48 132.88 937.38 129.32C936.28 125.76 935.22 122.11 934.19 118.37C934.48 122.48 934.69 126.69 934.79 131.02C934.9 135.35 934.96 140.04 934.96 145.1V182.28H919.01V105.28H944.86L953.66 129.59C955.93 136.19 957.88 142.19 959.49 147.58C961.1 152.97 962.39 158.05 963.34 162.82C964.29 158.05 965.58 152.98 967.19 147.58C968.8 142.19 970.75 136.2 973.02 129.59L981.71 105.28H1007.56V182.28H991.61V145.1C991.61 140.04 991.67 135.38 991.78 131.13C991.89 126.88 992.09 122.73 992.39 118.7C991.36 122.44 990.3 126.07 989.2 129.59C988.1 133.11 986.6 137.66 984.69 143.23L971.05 182.28H955.65L941.9 143.23L941.89 143.24Z" fill="white"/>
</g>
<defs>
<clipPath id="clip0_75_1013">
<rect width="1009.96" height="183.94" fill="white"/>
</clipPath>
</defs>
</svg>
