<svg width="807" height="249" viewBox="0 0 807 249" fill="none" xmlns="http://www.w3.org/2000/svg">
<path d="M128.927 105V-7.15256e-06H179.477C189.077 -7.15256e-06 197.027 2.09999 203.027 6.29999C209.027 10.5 212.027 16.65 212.027 24.45C212.027 30 210.377 34.5 207.227 38.1C204.077 41.7 199.877 44.25 194.477 45.75C201.377 47.55 207.077 50.7 211.277 55.35C215.477 60.15 217.577 66.15 217.577 73.5C217.577 83.85 214.127 91.65 207.377 97.05C200.477 102.45 191.777 105 181.127 105H128.927ZM175.727 18.75H151.727V42.45H175.727C180.227 42.45 183.677 41.55 186.227 39.6C188.627 37.8 189.977 34.8 189.977 30.6C189.977 26.4 188.627 23.4 186.227 21.6C183.677 19.8 180.227 18.75 175.727 18.75ZM178.877 86.25C183.527 86.25 187.277 85.35 189.977 83.4C192.677 81.6 194.177 78.3 194.177 73.65C194.177 69.15 192.677 65.85 189.977 63.9C187.277 62.1 183.527 61.05 178.877 61.05H151.727V86.25H178.877ZM316.509 105H291.159C290.259 103.8 289.509 102.15 289.209 100.2C288.909 98.25 288.759 96.15 288.759 93.75V78.9C288.759 74.7 287.709 71.4 285.759 69.3C283.809 67.2 280.659 66.15 276.459 66.15H248.859V105H225.759V-7.15256e-06H276.609C287.559 -7.15256e-06 296.409 2.4 303.309 6.89999C310.059 11.4 313.509 18.15 313.509 27C313.509 33.45 311.709 38.7 308.259 42.6C304.659 46.65 300.009 49.5 294.009 51C299.709 52.05 304.059 54.45 307.209 58.2C310.359 62.1 312.009 67.35 312.009 74.1V86.25C312.009 90.75 312.309 94.5 313.059 97.5C313.659 100.5 314.859 103.05 316.509 105ZM272.859 18.75H248.859V47.55H272.859C278.259 47.55 282.609 46.5 285.759 44.1C288.759 41.85 290.409 38.25 290.409 33.15C290.409 28.2 288.759 24.6 285.759 22.2C282.609 19.95 278.259 18.75 272.859 18.75ZM324.056 105V-7.15256e-06H401.006V18.75H346.856V42.3H396.506V61.05H346.856V86.25H401.756V105H324.056ZM482.808 105L475.458 84.3H432.558L425.208 105H401.808L440.808 -7.15256e-06H467.208L506.208 105H482.808ZM439.308 65.25H468.708C465.708 56.85 463.008 48.9 460.608 41.1C458.058 33.3 455.808 25.8 454.008 18.3C452.058 25.8 449.808 33.3 447.408 41.1C444.858 48.9 442.158 56.85 439.308 65.25ZM487.543 -7.15256e-06H577.993V18.75H544.243V105H521.293V18.75H487.543V-7.15256e-06ZM606.744 -7.15256e-06V42H658.044V-7.15256e-06H681.144V105H658.044V61.5H606.744V105H583.644V-7.15256e-06H606.744ZM39.3387 246L0.338672 141H23.7387L35.7387 174.15C38.5887 182.4 41.2887 190.35 43.8387 197.85C46.2387 205.5 48.4887 212.7 50.2887 219.45C52.0887 212.7 54.1887 205.5 56.7387 197.85C59.1387 190.35 61.8387 182.4 64.8387 174.15L76.6887 141H100.239L61.0887 246H39.3387ZM127.338 141V246H104.238V141H127.338ZM138.95 170.55C138.95 165.6 139.85 161.1 141.8 157.05C143.6 153.15 146.3 149.7 149.75 147C153.2 144.3 157.4 142.35 162.2 140.85C167 139.5 172.4 138.75 178.25 138.75C191.3 138.75 201.65 141.9 209.3 148.05C216.8 154.2 220.7 162.15 221 171.75H197.75C197.3 167.25 195.35 163.8 192.05 161.25C188.75 158.7 184.1 157.35 178.25 157.35C173.3 157.35 169.4 158.55 166.4 160.65C163.4 162.75 161.9 165.6 161.9 169.05C161.9 174.45 165.05 178.05 171.5 179.55C177.8 181.05 184.85 182.7 192.5 184.35C200.15 186.15 207.2 189 213.65 193.05C219.95 197.1 223.25 204.3 223.25 214.8C223.25 220.2 222.2 225 220.1 229.2C218 233.4 215 237 211.4 239.7C207.65 242.55 203.15 244.65 198.05 246.15C192.95 247.65 187.4 248.25 181.55 248.25C174.65 248.25 168.5 247.5 162.8 245.7C157.1 244.05 152.3 241.65 148.4 238.65C144.5 235.65 141.35 231.9 139.1 227.55C136.85 223.35 135.65 218.55 135.65 213.3H158.9C159.2 218.25 161.45 222.15 165.35 225.15C169.25 228.15 174.65 229.65 181.55 229.65C187.1 229.65 191.6 228.45 195.05 226.05C198.35 223.65 200.15 220.35 200.15 216.3C200.15 210.9 196.85 207.3 190.55 205.8C184.1 204.3 177.05 202.8 169.55 201C161.9 199.35 154.85 196.5 148.55 192.45C142.1 188.4 138.95 181.05 138.95 170.55ZM230.945 141H254.045V199.5C254.045 210.3 256.145 217.65 260.645 221.85C265.145 226.05 270.995 228 278.195 228C285.395 228 291.095 226.05 295.595 221.85C299.945 217.65 302.195 210.3 302.195 199.5V141H325.295V201.75C325.295 209.85 324.095 216.9 321.845 222.75C319.595 228.75 316.445 233.55 312.395 237.3C308.195 241.05 303.245 243.75 297.545 245.55C291.695 247.35 285.245 248.25 278.195 248.25C270.995 248.25 264.545 247.35 258.695 245.55C252.845 243.75 247.895 241.05 243.845 237.3C239.645 233.55 236.495 228.75 234.245 222.75C231.995 216.9 230.945 209.85 230.945 201.75V141ZM406.118 246L398.768 225.3H355.868L348.518 246H325.118L364.118 141H390.518L429.518 246H406.118ZM362.618 206.25H392.018C389.018 197.85 386.318 189.9 383.918 182.1C381.368 174.3 379.118 166.8 377.318 159.3C375.368 166.8 373.118 174.3 370.718 182.1C368.168 189.9 365.468 197.85 362.618 206.25ZM507.655 226.5V246H433.705V141H456.805V226.5H507.655ZM536.352 141V246H513.252V141H536.352ZM544.214 141H621.614V157.5L580.064 214.35C578.264 216.9 576.464 219.15 574.664 221.25L569.264 227.55C571.664 227.55 574.214 227.4 576.764 227.4C579.314 227.4 582.014 227.25 584.864 227.25H623.264V246H543.614V229.5L585.164 172.5C586.964 170.1 588.764 167.7 590.564 165.6L595.964 159.3C593.414 159.45 590.864 159.6 588.314 159.6C585.614 159.75 582.914 159.75 580.214 159.75H544.214V141ZM630.012 246V141H706.962V159.75H652.812V183.3H702.462V202.05H652.812V227.25H707.712V246H630.012ZM806.314 246H780.964C780.064 244.8 779.314 243.15 779.014 241.2C778.714 239.25 778.564 237.15 778.564 234.75V219.9C778.564 215.7 777.514 212.4 775.564 210.3C773.614 208.2 770.464 207.15 766.264 207.15H738.664V246H715.564V141H766.414C777.364 141 786.214 143.4 793.114 147.9C799.864 152.4 803.314 159.15 803.314 168C803.314 174.45 801.514 179.7 798.064 183.6C794.464 187.65 789.814 190.5 783.814 192C789.514 193.05 793.864 195.45 797.014 199.2C800.164 203.1 801.814 208.35 801.814 215.1V227.25C801.814 231.75 802.114 235.5 802.864 238.5C803.464 241.5 804.664 244.05 806.314 246ZM762.664 159.75H738.664V188.55H762.664C768.064 188.55 772.414 187.5 775.564 185.1C778.564 182.85 780.214 179.25 780.214 174.15C780.214 169.2 778.564 165.6 775.564 163.2C772.414 160.95 768.064 159.75 762.664 159.75Z" fill="#D8E243"/>
</svg>
